<svg width="283" height="843" xmlns="http://www.w3.org/2000/svg" xmlns:xlink="http://www.w3.org/1999/xlink"><defs><symbol viewBox="0 0 283 209" id="arrow">
  <g fill="none" fill-rule="evenodd" stroke-linecap="square" stroke-width="3" transform="rotate(-180 140.5 103.5)" style="mix-blend-mode:difference">
    <line x1=".758" x2="100.561" y1="101.409" y2=".182" />
    <line x1="2.75" x2="279.021" y1="103.182" y2="103.182" />
    <line x1=".758" x2="101.637" y1="102.943" y2="204.182" />
  </g>
</symbol><symbol viewBox="0 0 77 58" id="big-arrow">
    <g fill="none" stroke="black" stroke-width="2" stroke-linecap="square">
        <path d="m75.039 29.203-26.24 26.615M74.515 28.737H1.876M75.039 28.8 48.515 2.182" />
    </g>
</symbol><symbol viewBox="0 0 63 10" id="burger">
  <g fill="none" fill-rule="evenodd" stroke-linecap="square" stroke-width="2" transform="translate(1 1)">
    <line x1=".355" x2="60.645" y1=".5" y2=".5" />
    <line x1="30.5" x2="60.645" y1="7.5" y2="7.5" />
  </g>
</symbol><symbol viewBox="0 0 139 139" id="close">
  <g fill="none" fill-rule="evenodd" stroke-linecap="square" stroke-width="3" transform="translate(3 2)">
    <line x1="1" x2="132.291" y1="134" y2="1" />
    <line x2="133" y1="1" y2="132" />
  </g>
</symbol><symbol viewBox="0 0 24 24" id="globe">
  <path fill-rule="evenodd" d="M12.02,0 C18.634,0.011 24,5.383 24,12 C24,18.623 18.624,24 12,24 C5.377,24 0,18.623 0,12 C0,5.383 5.367,0.011 11.981,0 L12.02,0 Z M15.714,16 L8.287,16 C8.926,20.266 10.529,23 12,23 C13.472,23 15.075,20.266 15.714,16 M22.249,16 L16.726,16 C16.3,18.985 15.405,21.402 14.241,22.771 C17.91,22.011 20.912,19.421 22.249,16 M7.275,16 L1.751,16 C3.089,19.421 6.091,22.011 9.76,22.771 C8.596,21.402 7.701,18.985 7.275,16 M7.152,9 L1.416,9 C1.085,10.166 0.675,12.389 1.416,15 L7.152,15 C6.964,13.186 6.937,11.075 7.152,9 M15.843,9 L8.158,9 C7.963,10.8 7.933,12.927 8.158,15 L15.843,15 C16.039,13.189 16.067,11.07 15.843,9 M22.585,9 L16.849,9 C16.911,9.592 17.157,12.019 16.849,15 L22.585,15 C23.326,12.388 22.916,10.165 22.585,9 M9.76,1.229 C6.091,1.989 3.089,4.579 1.751,8 L7.275,8 C7.701,5.015 8.596,2.597 9.76,1.229 M15.714,8 C15.075,3.734 13.472,1 12,1 C10.529,1 8.926,3.734 8.287,8 L15.714,8 Z M14.241,1.229 C15.405,2.597 16.3,5.015 16.726,8 L22.249,8 C20.912,4.579 17.91,1.989 14.241,1.229" />
</symbol><symbol viewBox="0 0 111 111" id="happy">
  <g fill="none" fill-rule="evenodd" stroke="#FFF">
    <circle cx="55.5" cy="55.5" r="54" fill="#1D1D1D" stroke-width="3" />
    <g fill="#FFF" stroke-width="3" transform="translate(37.955 32.942)">
      <rect width="6.023" height="24.213" x="1.5" y="1.5" rx="3.012" />
      <rect width="6.023" height="24.213" x="27.567" y="1.5" rx="3.012" />
    </g>
    <path stroke-linecap="round" stroke-width="6" d="M20.5808782,59.4387097 C17.3696211,79.0129032 28.771318,88.8 54.7859687,88.8 C80.8006194,88.8 92.7793853,79.2756061 90.7222664,60.2268184" />
  </g>
</symbol><symbol viewBox="0 0 70 83" id="heart">
  <path d="M1493.87044,225.469145 L1505.21286,239.091627 C1505.72149,239.702496 1506,240.472266 1506,241.267162 L1506,264.670141 C1506,265.465032 1505.72149,266.234798 1505.21287,266.845665 L1473.61303,304.798038 C1472.41152,306.241087 1470.26768,306.436893 1468.82463,305.235384 C1468.66581,305.103149 1468.51938,304.95671 1468.38716,304.797884 L1436.787,266.84058 C1436.27846,266.229736 1436,265.460032 1436,264.66521 L1436,241.267162 C1436,240.472266 1436.27851,239.702496 1436.78714,239.091627 L1448.12956,225.469145 C1449.33108,224.026101 1451.47492,223.830303 1452.91796,225.031818 C1452.97987,225.083368 1453.03993,225.137103 1453.09803,225.19292 L1468.6444,240.129572 C1469.96032,241.393891 1472.03968,241.393891 1473.3556,240.129572 L1488.90197,225.19292 C1490.25604,223.891955 1492.40837,223.935006 1493.70934,225.289076 C1493.76515,225.347171 1493.81889,225.407232 1493.87044,225.469145 Z" transform="translate(-1436 -223.8)" />
</symbol><symbol viewBox="0 0 103 44" id="logo">
  <path fill-rule="evenodd" d="M35.1441047,8.4486911 L58.6905011,8.4486911 L58.6905011,-1.3094819e-14 L35.1441047,-1.3094819e-14 L35.1441047,8.4486911 Z M20.0019577,0.000230366492 L8.83414254,25.3433089 L18.4876971,25.3433089 L29.5733875,0.000230366492 L20.0019577,0.000230366492 Z M72.5255345,0.000691099476 L72.5255345,8.44846073 L94.3991559,8.44846073 L94.3991559,16.8932356 L72.5275991,16.8932356 L72.5275991,19.5237906 L72.5255345,19.5237906 L72.5255345,43.9274346 L102.80937,43.9274346 L102.80937,35.4798953 L80.9357483,35.4798953 L80.9357483,25.3437696 L94.3996147,25.3428482 L94.3996147,16.8953089 L102.80937,16.8953089 L102.80937,0.000691099476 L72.5255345,0.000691099476 Z M-1.30398043e-14,43.9278953 L8.78642762,43.9278953 L8.78642762,0.0057591623 L-1.30398043e-14,0.0057591623 L-1.30398043e-14,43.9278953 Z M58.6849955,8.4486911 L43.1186904,43.9274346 L52.3166592,43.9274346 L67.9877996,8.4486911 L58.6849955,8.4486911 Z M18.4688864,25.3437696 L26.7045278,43.9278953 L36.2761871,43.9278953 L28.1676325,25.3375497 L18.4688864,25.3437696 Z" />
</symbol><symbol fill="none" viewBox="0 0 33 29" id="quote">
    <path d="M32.678 6.634c-1.963.72-3.467 1.832-4.514 3.336-.981 1.505-1.472 3.303-1.472 5.397h5.986v13.246H20.413V15.367c0-1.832.327-3.533.981-5.103a13.5 13.5 0 0 1 2.65-4.12 16.081 16.081 0 0 1 3.826-3.14 24.203 24.203 0 0 1 4.808-2.06v5.69Zm-19.526 0c-1.962.72-3.467 1.832-4.513 3.336-.982 1.505-1.472 3.303-1.472 5.397h5.985v13.246H.887V15.367c0-1.832.327-3.533.981-5.103a13.501 13.501 0 0 1 2.65-4.12 16.082 16.082 0 0 1 3.826-3.14 24.203 24.203 0 0 1 4.808-2.06v5.69Z" fill="#000" />
</symbol><symbol fill="none" viewBox="0 0 36 36" id="quote-fr">
    <path fill="#000" d="M35.523 12.817v10.99L20.315 35.874V25.769l9.32-7.457-9.32-7.457V.748l15.208 12.069Zm-19.428 0v10.99L.888 35.874V25.769l9.321-7.457-9.32-7.457V.748l15.208 12.069Z" />
</symbol></defs></svg>